<?xml version="1.0" standalone="no"?>
<!DOCTYPE svg PUBLIC "-//W3C//DTD SVG 20010904//EN"
 "http://www.w3.org/TR/2001/REC-SVG-20010904/DTD/svg10.dtd">
<svg version="1.0" xmlns="http://www.w3.org/2000/svg"
 width="40.000000pt" height="40.000000pt" viewBox="0 0 40.000000 40.000000"
 preserveAspectRatio="xMidYMid meet">
<metadata>
Created by potrace 1.16, written by Peter Selinger 2001-2019
</metadata>
<g transform="translate(0.000000,40.000000) scale(0.007813,-0.007813)"
fill="#000000" stroke="none">
<path d="M1944 4064 c-23 -8 -60 -31 -83 -50 -143 -123 -109 -360 63 -440 49
-23 61 -24 269 -24 l219 0 29 -29 29 -29 0 -321 0 -321 -95 0 c-110 0 -145 11
-210 67 l-44 38 -1 91 c0 117 -19 180 -70 232 -72 75 -105 86 -271 90 -213 5
-299 -21 -412 -126 -56 -53 -114 -164 -124 -237 -6 -43 -13 -55 -58 -96 -56
-52 -97 -125 -114 -207 -15 -72 -15 -1205 0 -1287 23 -128 116 -251 227 -303
50 -24 69 -27 157 -27 95 0 104 2 178 37 130 62 175 116 292 348 53 107 99
196 100 198 1 1 23 -9 49 -24 63 -35 146 -42 216 -19 59 19 127 80 150 132
l14 32 107 0 c106 0 107 0 113 -25 11 -43 96 -119 155 -139 71 -23 154 -16
217 19 26 15 48 25 49 24 2 -2 46 -90 100 -197 115 -231 162 -289 284 -349 73
-36 78 -37 185 -37 102 0 116 2 169 28 77 38 148 111 189 194 l33 68 0 680 0
680 -32 66 c-20 40 -53 85 -83 113 -43 40 -52 56 -61 99 -25 136 -118 255
-244 318 l-69 34 -177 3 c-164 3 -180 2 -228 -19 -66 -28 -126 -95 -146 -162
-8 -28 -15 -90 -15 -138 l0 -87 -41 -37 c-66 -59 -110 -75 -216 -75 l-93 0 0
338 c0 332 -1 338 -24 387 -26 56 -80 109 -140 136 -36 16 -69 19 -258 19
l-216 0 -31 26 c-40 33 -43 83 -6 119 l24 25 1031 0 1030 0 0 90 0 90 -1037
-1 c-883 0 -1044 -3 -1079 -15z m1586 -1484 l0 -90 -85 0 -85 0 0 -85 0 -85
85 0 85 0 0 -90 0 -90 -85 0 -85 0 0 85 0 85 -90 0 -90 0 0 90 0 90 90 0 90 0
0 90 0 90 85 0 85 0 0 -90z m170 -175 l0 -85 -80 0 -80 0 0 85 0 85 80 0 80 0
0 -85z"/>
</g>
</svg>
